<svg width="406" height="826" viewBox="0 0 406 826" fill="none" xmlns="http://www.w3.org/2000/svg">
<path id="line-1-shape-2" d="M1.60423e-06 86.017C1.2049 86.017 2.398 85.7797 3.51118 85.3186C4.62436 84.8575 5.63582 84.1817 6.48781 83.3297C7.3398 82.4777 8.01563 81.4662 8.47673 80.3531C8.93782 79.2399 9.17514 78.0468 9.17514 76.8419C9.17514 75.637 8.93782 74.4439 8.47673 73.3307C8.01563 72.2175 7.3398 71.2061 6.48781 70.3541C5.63581 69.5021 4.62435 68.8263 3.51117 68.3652C2.398 67.9041 1.2049 67.6667 0 67.6667L1.60423e-06 86.017Z" fill="#FB913A"/>
<path id="line-1-shape-9" d="M241.994 286.15L229.378 294.751L229.378 277.548L241.994 286.15Z" fill="#4673D1"/>
<path d="M223.645 725.41L211.029 734.011L211.029 716.808L223.645 725.41Z" fill="#4673D1"/>
<path d="M161.712 205.294C162.917 205.294 164.11 205.057 165.223 204.595C166.337 204.134 167.348 203.459 168.2 202.607C169.052 201.755 169.728 200.743 170.189 199.63C170.65 198.517 170.887 197.324 170.887 196.119C170.887 194.914 170.65 193.721 170.189 192.608C169.728 191.494 169.052 190.483 168.2 189.631C167.348 188.779 166.337 188.103 165.223 187.642C164.11 187.181 162.917 186.944 161.712 186.944L161.712 196.119L161.712 205.294Z" fill="#FB913A"/>
<path d="M157.124 542.48C158.329 542.48 159.522 542.243 160.636 541.782C161.749 541.321 162.76 540.645 163.612 539.793C164.464 538.941 165.14 537.929 165.601 536.816C166.062 535.703 166.3 534.51 166.299 533.305C166.299 532.1 166.062 530.907 165.601 529.794C165.14 528.681 164.464 527.669 163.612 526.817C162.76 525.965 161.749 525.289 160.636 524.828C159.522 524.367 158.329 524.13 157.124 524.13L157.124 533.305L157.124 542.48Z" fill="#FB913A"/>
<path d="M153.684 83.7232C155.34 83.7232 156.981 83.3969 158.511 82.7629C160.042 82.1289 161.433 81.1996 162.604 80.0282C163.776 78.8567 164.705 77.4659 165.339 75.9353C165.973 74.4047 166.299 72.7642 166.299 71.1074L153.684 71.1074L153.684 83.7232Z" fill="#FF576D"/>
<path d="M11.4688 542.48C13.1255 542.48 14.766 542.154 16.2966 541.52C17.8272 540.886 19.218 539.957 20.3895 538.785C21.561 537.614 22.4902 536.223 23.1242 534.692C23.7583 533.162 24.0846 531.521 24.0846 529.865L11.4688 529.865L11.4688 542.48Z" fill="#FF576D"/>
<path d="M77.9883 276.147C79.1179 277.318 80.4589 278.248 81.9348 278.882C83.4107 279.516 84.9925 279.842 86.59 279.842C88.1875 279.842 89.7693 279.516 91.2452 278.882C92.7211 278.248 94.0621 277.318 95.1917 276.147L86.59 267.226L77.9883 276.147Z" fill="#4673D1"/>
<path d="M182.355 675.265C183.485 676.437 184.826 677.366 186.302 678C187.778 678.634 189.36 678.961 190.957 678.961C192.555 678.961 194.136 678.634 195.612 678C197.088 677.366 198.429 676.437 199.559 675.265L190.957 666.345L182.355 675.265Z" fill="#4673D1"/>
<path d="M361.271 344.322C362.401 343.151 363.742 342.221 365.218 341.587C366.694 340.953 368.276 340.627 369.873 340.627C371.471 340.627 373.053 340.953 374.528 341.587C376.004 342.221 377.345 343.151 378.475 344.322L369.873 353.243L361.271 344.322Z" fill="#FF576D"/>
<path d="M319.982 743.441C321.112 742.269 322.453 741.34 323.929 740.706C325.405 740.072 326.987 739.746 328.584 739.746C330.182 739.746 331.763 740.072 333.239 740.706C334.715 741.34 336.056 742.269 337.186 743.441L328.584 752.362L319.982 743.441Z" fill="#FF576D"/>
<path d="M364.458 142.215C365.629 141.01 366.559 139.579 367.193 138.005C367.827 136.431 368.153 134.744 368.153 133.04C368.153 131.336 367.827 129.648 367.193 128.074C366.559 126.5 365.629 125.069 364.458 123.865L355.537 133.04L364.458 142.215Z" fill="#51BFE1"/>
<path d="M362.163 595.237C363.334 594.032 364.264 592.602 364.898 591.028C365.532 589.453 365.858 587.766 365.858 586.062C365.858 584.358 365.532 582.671 364.898 581.097C364.264 579.522 363.334 578.092 362.163 576.887L353.242 586.062L362.163 595.237Z" fill="#51BFE1"/>
<path d="M163.751 389.548C162.899 390.386 161.932 391.098 160.879 391.664C161.932 392.23 162.899 392.942 163.751 393.78C164.922 394.933 165.852 396.302 166.486 397.808C167.12 399.314 167.446 400.929 167.446 402.559L154.83 402.559L154.83 380.768L167.446 380.768C167.446 382.399 167.12 384.013 166.486 385.52C165.852 387.026 164.922 388.395 163.751 389.548Z" fill="#FF576D"/>
<path d="M149.989 787.52C149.138 788.358 148.17 789.07 147.117 789.636C148.17 790.202 149.138 790.914 149.989 791.752C151.161 792.905 152.09 794.274 152.724 795.78C153.358 797.286 153.684 798.901 153.684 800.531L141.068 800.531L141.068 778.74L153.684 778.74C153.684 780.371 153.358 781.985 152.724 783.492C152.09 784.998 151.161 786.367 149.989 787.52Z" fill="#FF576D"/>
<path d="M276.4 196.119L276.4 208.734C274.77 208.734 273.155 208.408 271.649 207.774C270.143 207.14 268.774 206.211 267.621 205.039C266.783 204.188 266.071 203.22 265.505 202.168C264.939 203.22 264.227 204.188 263.389 205.039C262.236 206.211 260.867 207.14 259.361 207.774C257.854 208.408 256.24 208.734 254.609 208.734L254.609 196.119L276.4 196.119Z" fill="#51BFE1"/>
<path d="M284.43 613.588L284.43 626.203C282.799 626.203 281.185 625.877 279.678 625.243C278.172 624.609 276.803 623.68 275.65 622.508C274.812 621.657 274.1 620.689 273.534 619.637C272.968 620.689 272.256 621.657 271.418 622.508C270.265 623.68 268.896 624.609 267.39 625.243C265.884 625.877 264.269 626.203 262.639 626.203L262.639 613.588L284.43 613.588Z" fill="#51BFE1"/>
<path d="M72.2552 20.644L63.0801 29.8192L72.2552 38.9943L81.4304 29.8192L72.2552 20.644Z" fill="#4673D1"/>
<path d="M77.9896 607.853L68.8145 617.028L77.9896 626.204L87.1647 617.028L77.9896 607.853Z" fill="#4673D1"/>
<path d="M34.1392 215.616L26.3783 207.855L18.6173 215.616L26.3783 223.377L34.1392 215.616Z" stroke="#FF576D" stroke-width="2"/>
<path d="M79.1361 447.288L69.9609 456.463L79.1361 465.638L88.3112 456.463L79.1361 447.288Z" fill="#FF576D"/>
<path d="M272.96 375.034L263.785 384.209L272.96 393.384L282.135 384.209L272.96 375.034Z" fill="#51BFE1"/>
<path d="M274.987 814.294L267.226 806.533L259.465 814.294L267.226 822.055L274.987 814.294Z" stroke="#51BFE1" stroke-width="2"/>
<path d="M14.9095 332.599L5.73438 341.774L14.9095 350.949L24.0847 341.774L14.9095 332.599Z" fill="#51BFE1"/>
<path d="M14.9095 731.718L5.73438 740.893L14.9095 750.068L24.0847 740.893L14.9095 731.718Z" fill="#51BFE1"/>
<path d="M66.5195 143.935L79.1354 152.537L79.1354 135.333L66.5195 143.935Z" fill="#FF576D"/>
<path d="M97.4863 708.206L110.102 716.808L110.102 699.604L97.4863 708.206Z" fill="#FF576D"/>
<path d="M329.158 29.8193L341.774 37.8475L341.774 21.791L329.158 29.8193Z" fill="#FF576D"/>
<path d="M309.66 434.672L322.276 442.701L322.276 426.644L309.66 434.672Z" fill="#FF576D"/>
<rect width="12.6158" height="12.6158" transform="matrix(4.37114e-08 1 1 -4.37114e-08 259.783 98.6328)" fill="#4673D1"/>
<rect width="12.6158" height="12.6158" transform="matrix(4.37114e-08 1 1 -4.37114e-08 246.582 503.486)" fill="#4673D1"/>
<path id="line-1-segment-3" d="M57.3454 144.509L35.4414 144.509C17.7683 144.509 3.44141 130.182 3.44141 112.509L3.44141 95.1921" stroke="#FB913A" stroke-width="1.5" stroke-dasharray="6 6"/>
<path id="line-1-segment-14" d="M166.299 177.768L166.299 176.509C166.299 158.835 151.972 144.509 134.299 144.509L88.3105 144.509" stroke="#FB913A" stroke-width="1.5" stroke-dasharray="6 6"/>
<path d="M168.593 675.52L152.423 675.52C134.75 675.52 120.423 661.193 120.423 643.52L120.423 566.452C120.423 548.779 106.097 534.452 88.4234 534.452L44.7285 534.452" stroke="#FF576D" stroke-width="1.5" stroke-dasharray="6 6"/>
<path d="M360.125 154.257L360.125 169.853C360.125 187.526 345.798 201.853 328.125 201.853L289.018 201.853" stroke="#FB913A" stroke-width="1.5" stroke-dasharray="6 6"/>
<path d="M370.446 362.418L370.446 402.672C370.446 420.346 356.119 434.672 338.446 434.672L331.451 434.672" stroke="#FB913A" stroke-width="1.5" stroke-dasharray="6 6"/>
<path d="M104.367 276.401L134.299 276.401C151.973 276.401 166.299 262.074 166.299 244.401L166.299 214.469" stroke="#FB913A" stroke-width="1.5" stroke-dasharray="6 6"/>
<path d="M96.3398 617.028L128.566 617.028C146.239 617.028 160.566 602.701 160.566 585.028L160.566 551.656" stroke="#FB913A" stroke-width="1.5" stroke-dasharray="6 6"/>
<path d="M99.7793 456.463L240.96 456.463C258.633 456.463 272.96 442.136 272.96 424.463L272.96 402.559" stroke="#928CDA" stroke-width="1.5" stroke-dasharray="6 6"/>
<path d="M213.322 675.52L328.125 675.52C345.798 675.52 360.125 661.193 360.125 643.52L360.125 604.413" stroke="#928CDA" stroke-width="1.5" stroke-dasharray="6 6"/>
<path d="M14.9102 323.424L14.9102 308.401C14.9102 290.728 29.237 276.401 46.9102 276.401L68.8141 276.401" stroke="#51BFE1" stroke-width="1.5" stroke-dasharray="6 6"/>
<path d="M14.9102 722.542L14.9102 649.028C14.9102 631.355 29.237 617.028 46.9102 617.028L59.639 617.028" stroke="#51BFE1" stroke-width="1.5" stroke-dasharray="6 6"/>
<path d="M266.08 89.4575L266.08 61.8191C266.08 44.146 280.407 29.8191 298.08 29.8191L319.984 29.8191" stroke="#4673D1" stroke-width="1.5" stroke-dasharray="6 6"/>
<path d="M60.7859 456.463L46.9102 456.463C29.237 456.463 14.9102 442.136 14.9102 424.463L14.9102 360.124" stroke="#51BFE1" stroke-width="1.5" stroke-dasharray="6 6"/>
<path d="M144.508 76.8418L140.414 76.8418C123.846 76.8418 110.414 90.2733 110.414 106.842L110.414 185.616C110.414 202.184 96.9827 215.616 80.4142 215.616L44.7285 215.616" stroke="#FF576D" stroke-width="1.5" stroke-linecap="round" stroke-dasharray="6 6"/>
<path d="M175.475 76.8418L179.946 76.8418C197.619 76.8418 211.946 91.1687 211.946 108.842L211.946 169.853C211.946 187.526 226.273 201.853 243.946 201.853L245.435 201.853" stroke="#FB913A" stroke-width="1.5" stroke-dasharray="6 6"/>
<path d="M251.17 286.723V286.723C263.205 286.723 272.961 296.479 272.961 308.514L272.961 365.859" stroke="#928CDA" stroke-width="1.5" stroke-dasharray="6 6"/>
<path d="M293.605 619.322L297.159 619.322C314.832 619.322 329.159 633.649 329.159 651.322L329.159 730.571" stroke="#FF576D" stroke-width="1.5" stroke-dasharray="6 6"/>
<path d="M268.373 509.22L328.124 509.22C345.798 509.22 360.124 523.547 360.124 541.22L360.124 567.712" stroke="#928CDA" stroke-width="1.5" stroke-dasharray="6 6"/>
<path d="M232.818 725.983L235.225 725.983C252.898 725.983 267.225 740.31 267.225 757.983L267.225 795.944" stroke="#928CDA" stroke-width="1.5" stroke-dasharray="6 6"/>
<path d="M3.44141 58.4914V58.4914C3.44141 42.6561 16.2784 29.8191 32.1137 29.8191L53.9047 29.8191" stroke="#FF576D" stroke-width="1.5" stroke-dasharray="6 6"/>
<path d="M90.6055 29.8191L115.837 29.8191C132.306 29.8191 145.656 16.4686 145.656 -0.000123046V-0.000123046" stroke="#FF576D" stroke-width="1.5" stroke-dasharray="6 6"/>
<path d="M145.656 825.763L145.656 809.706" stroke="#FF576D" stroke-width="1.5" stroke-dasharray="6 6"/>
<path d="M266.08 120.424C266.08 143.714 266.08 186.944 266.08 186.944" stroke="#4673D1" stroke-width="1.5" stroke-dasharray="6 6"/>
<path d="M160.564 411.735L160.564 514.955" stroke="#FB913A" stroke-width="1.5" stroke-dasharray="6 6"/>
<path d="M266.08 217.91L266.08 244.401C266.08 262.074 280.407 276.401 298.08 276.401L337.874 276.401C355.547 276.401 369.874 290.728 369.874 308.401L369.874 331.452" stroke="#51BFE1" stroke-width="1.5" stroke-dasharray="6 6"/>
<path d="M160.564 371.593L160.564 317.576C160.564 299.903 174.891 285.576 192.564 285.576L220.203 285.576" stroke="#51BFE1" stroke-width="1.5" stroke-dasharray="6 6"/>
<path d="M253.463 619.896L224.678 619.896C207.005 619.896 192.678 605.569 192.678 587.896L192.678 541.22C192.678 523.547 207.005 509.22 224.678 509.22L238.553 509.22" stroke="#51BFE1" stroke-width="1.5" stroke-dasharray="6 6"/>
<path d="M145.656 769.565L145.656 756.836C145.656 739.163 159.983 724.836 177.656 724.836L201.854 724.836" stroke="#51BFE1" stroke-width="1.5" stroke-dasharray="6 6"/>
</svg>
